<svg version="1.1" viewBox="0.0 0.0 48.0 48.0" fill="none" stroke="none" stroke-linecap="square" stroke-miterlimit="10" xmlns:xlink="http://www.w3.org/1999/xlink" xmlns="http://www.w3.org/2000/svg"><clipPath id="p.0"><path d="m0 0l48.0 0l0 48.0l-48.0 0l0 -48.0z" clip-rule="nonzero"/></clipPath><g clip-path="url(#p.0)"><path fill="#000000" fill-opacity="0.0" d="m0 0l48.0 0l0 48.0l-48.0 0z" fill-rule="evenodd"/><path fill="#000000" fill-opacity="0.0" d="m0.5853018 8.343988l0 0c0 -4.3168945 3.4995346 -7.816429 7.8164296 -7.816429l31.359266 0l0 0c2.0730476 0 4.0611877 0.82351434 5.52705 2.2893791c1.4658661 1.4658649 2.2893791 3.454004 2.2893791 5.52705l0 31.26478c0 4.3168945 -3.4995346 7.816429 -7.816429 7.816429l-31.359266 0c-4.316895 0 -7.8164296 -3.4995346 -7.8164296 -7.816429z" fill-rule="evenodd"/><path stroke="#4a86e8" stroke-width="1.0" stroke-linejoin="round" stroke-linecap="butt" d="m0.5853018 8.343988l0 0c0 -4.3168945 3.4995346 -7.816429 7.8164296 -7.816429l31.359266 0l0 0c2.0730476 0 4.0611877 0.82351434 5.52705 2.2893791c1.4658661 1.4658649 2.2893791 3.454004 2.2893791 5.52705l0 31.26478c0 4.3168945 -3.4995346 7.816429 -7.816429 7.816429l-31.359266 0c-4.316895 0 -7.8164296 -3.4995346 -7.8164296 -7.816429z" fill-rule="evenodd"/><path fill="#4176cd" d="m6.766404 13.0814085l0 0c0 -1.2060633 0.9777074 -2.1837711 2.1837711 -2.1837711l10.278127 0c0.57917213 0 1.1346226 0.23007584 1.5441589 0.6396122c0.40953827 0.40953636 0.6396122 0.9649868 0.6396122 1.5441589l0 8.73482c0 1.2060642 -0.9777069 2.1837711 -2.1837711 2.1837711l-10.278127 0c-1.2060637 0 -2.1837711 -0.9777069 -2.1837711 -2.1837711z" fill-rule="evenodd"/><path fill="#4a86e8" d="m37.301758 40.065617l-26.58252 0c-1.048357 0 -2.0537758 -0.41645813 -2.7950764 -1.1577568c-0.7413006 -0.7413025 -1.1577587 -1.7467194 -1.1577587 -2.7950783l0 -19.7637c0 -1.5830994E-4 1.2874603E-4 -2.8800964E-4 2.875328E-4 -2.8800964E-4l34.4879 2.8800964E-4l0 0c1.6021729E-4 0 2.861023E-4 1.296997E-4 2.861023E-4 2.8800964E-4l-2.861023E-4 19.763412l0 0c0 2.1830902 -1.7697449 3.952835 -3.952835 3.952835z" fill-rule="evenodd"/></g></svg>