<svg version="1.1" viewBox="0.0 0.0 48.0 48.0" fill="none" stroke="none" stroke-linecap="square" stroke-miterlimit="10" xmlns:xlink="http://www.w3.org/1999/xlink" xmlns="http://www.w3.org/2000/svg"><clipPath id="p.0"><path d="m0 0l48.0 0l0 48.0l-48.0 0l0 -48.0z" clip-rule="nonzero"/></clipPath><g clip-path="url(#p.0)"><path fill="#000000" fill-opacity="0.0" d="m0 0l48.0 0l0 48.0l-48.0 0z" fill-rule="evenodd"/><path fill="#4a86e8" d="m9.889764 23.976377l0 0c0 -7.514551 6.3173685 -13.606298 14.110236 -13.606298l0 0c3.7422676 0 7.3312607 1.4335165 9.977444 3.9851923c2.646183 2.5516768 4.1327934 6.012492 4.1327934 9.621106l0 0c0 7.514551 -6.3173695 13.606298 -14.110237 13.606298l0 0c-7.7928677 0 -14.110236 -6.0917473 -14.110236 -13.606298z" fill-rule="evenodd"/><path stroke="#ffffff" stroke-width="1.0" stroke-linejoin="round" stroke-linecap="butt" d="m9.889764 23.976377l0 0c0 -7.514551 6.3173685 -13.606298 14.110236 -13.606298l0 0c3.7422676 0 7.3312607 1.4335165 9.977444 3.9851923c2.646183 2.5516768 4.1327934 6.012492 4.1327934 9.621106l0 0c0 7.514551 -6.3173695 13.606298 -14.110237 13.606298l0 0c-7.7928677 0 -14.110236 -6.0917473 -14.110236 -13.606298z" fill-rule="evenodd"/><path fill="#000000" fill-opacity="0.0" d="m0.5853018 8.343988l0 0c0 -4.3168945 3.4995346 -7.816429 7.8164296 -7.816429l31.359266 0l0 0c2.0730476 0 4.0611877 0.82351434 5.52705 2.2893791c1.4658661 1.4658649 2.2893791 3.454004 2.2893791 5.52705l0 31.26478c0 4.3168945 -3.4995346 7.816429 -7.816429 7.816429l-31.359266 0c-4.316895 0 -7.8164296 -3.4995346 -7.8164296 -7.816429z" fill-rule="evenodd"/><path stroke="#4a86e8" stroke-width="1.0" stroke-linejoin="round" stroke-linecap="butt" d="m0.5853018 8.343988l0 0c0 -4.3168945 3.4995346 -7.816429 7.8164296 -7.816429l31.359266 0l0 0c2.0730476 0 4.0611877 0.82351434 5.52705 2.2893791c1.4658661 1.4658649 2.2893791 3.454004 2.2893791 5.52705l0 31.26478c0 4.3168945 -3.4995346 7.816429 -7.816429 7.816429l-31.359266 0c-4.316895 0 -7.8164296 -3.4995346 -7.8164296 -7.816429z" fill-rule="evenodd"/><path fill="#000000" fill-opacity="0.0" d="m24.0 10.393701l0 27.2126" fill-rule="evenodd"/><path stroke="#ffffff" stroke-width="1.0" stroke-linejoin="round" stroke-linecap="butt" d="m24.0 10.393701l0 27.2126" fill-rule="evenodd"/><path fill="#000000" fill-opacity="0.0" d="m9.889764 24.0l28.220474 0" fill-rule="evenodd"/><path stroke="#ffffff" stroke-width="1.0" stroke-linejoin="round" stroke-linecap="butt" d="m9.889764 24.0l28.220474 0" fill-rule="evenodd"/><path fill="#000000" fill-opacity="0.0" d="m-7.96063 4.9160104l5.6062994 5.606299" fill-rule="evenodd"/><path stroke="#000000" stroke-width="1.0" stroke-linejoin="round" stroke-linecap="butt" d="m-7.96063 4.9160104l5.6062994 5.606299" fill-rule="evenodd"/><path fill="#4a86e8" d="m17.496063 24.0l0 0c0 -7.392788 2.911911 -13.385827 6.503937 -13.385827l0 0c1.7249508 0 3.3792534 1.4102888 4.598978 3.920618c1.2197247 2.5103292 1.9049587 5.9150667 1.9049587 9.465209l0 0c0 7.392788 -2.911911 13.385826 -6.503937 13.385826l0 0c-3.5920258 0 -6.503937 -5.993038 -6.503937 -13.385826z" fill-rule="evenodd"/><path stroke="#ffffff" stroke-width="1.0" stroke-linejoin="round" stroke-linecap="butt" d="m17.496063 24.0l0 0c0 -7.392788 2.911911 -13.385827 6.503937 -13.385827l0 0c1.7249508 0 3.3792534 1.4102888 4.598978 3.920618c1.2197247 2.5103292 1.9049587 5.9150667 1.9049587 9.465209l0 0c0 7.392788 -2.911911 13.385826 -6.503937 13.385826l0 0c-3.5920258 0 -6.503937 -5.993038 -6.503937 -13.385826z" fill-rule="evenodd"/><path fill="#000000" fill-opacity="0.0" d="m13.288713 32.00525l0 0c0 -2.9658127 4.632267 -5.370079 10.346457 -5.370079l0 0c5.7141914 0 10.346458 2.4042664 10.346458 5.370079l0 0c0 2.9658127 -4.632267 5.370079 -10.346458 5.370079l0 0c-5.7141895 0 -10.346457 -2.4042664 -10.346457 -5.370079z" fill-rule="evenodd"/><path stroke="#ffffff" stroke-width="1.0" stroke-linejoin="round" stroke-linecap="butt" d="m13.288713 32.00525l0 0c0 -2.9658127 4.632267 -5.370079 10.346457 -5.370079l0 0c5.7141914 0 10.346458 2.4042664 10.346458 5.370079l0 0c0 2.9658127 -4.632267 5.370079 -10.346458 5.370079l0 0c-5.7141895 0 -10.346457 -2.4042664 -10.346457 -5.370079z" fill-rule="evenodd"/><path fill="#000000" fill-opacity="0.0" d="m13.288713 15.23622l0 0c0 -2.6874962 4.9847984 -4.8661413 11.13386 -4.8661413l0 0c6.1490593 0 11.133858 2.1786451 11.133858 4.8661413l0 0c0 2.6874952 -4.9847984 4.8661413 -11.133858 4.8661413l0 0c-6.149061 0 -11.13386 -2.178646 -11.13386 -4.8661413z" fill-rule="evenodd"/><path stroke="#ffffff" stroke-width="1.0" stroke-linejoin="round" stroke-linecap="butt" d="m13.288713 15.23622l0 0c0 -2.6874962 4.9847984 -4.8661413 11.13386 -4.8661413l0 0c6.1490593 0 11.133858 2.1786451 11.133858 4.8661413l0 0c0 2.6874952 -4.9847984 4.8661413 -11.133858 4.8661413l0 0c-6.149061 0 -11.13386 -2.178646 -11.13386 -4.8661413z" fill-rule="evenodd"/><path fill="#000000" fill-opacity="0.0" d="m9.889764 24.0l0 0c0 -7.514551 6.3173685 -13.606299 14.110236 -13.606299l0 0c3.7422676 0 7.3312607 1.4335165 9.977444 3.9851933c2.646183 2.5516748 4.1327934 6.012492 4.1327934 9.621106l0 0c0 7.514551 -6.3173695 13.6063 -14.110237 13.6063l0 0c-7.7928677 0 -14.110236 -6.091749 -14.110236 -13.6063z" fill-rule="evenodd"/><path stroke="#ffffff" stroke-width="1.0" stroke-linejoin="round" stroke-linecap="butt" d="m9.889764 24.0l0 0c0 -7.514551 6.3173685 -13.606299 14.110236 -13.606299l0 0c3.7422676 0 7.3312607 1.4335165 9.977444 3.9851933c2.646183 2.5516748 4.1327934 6.012492 4.1327934 9.621106l0 0c0 7.514551 -6.3173695 13.6063 -14.110237 13.6063l0 0c-7.7928677 0 -14.110236 -6.091749 -14.110236 -13.6063z" fill-rule="evenodd"/><path fill="#000000" fill-opacity="0.0" d="m24.0 10.393701l0 27.2126" fill-rule="evenodd"/><path stroke="#ffffff" stroke-width="1.0" stroke-linejoin="round" stroke-linecap="butt" d="m24.0 10.393701l0 27.2126" fill-rule="evenodd"/><path fill="#000000" fill-opacity="0.0" d="m52.56693 13.874016l5.6063004 5.6062984" fill-rule="evenodd"/><path stroke="#000000" stroke-width="1.0" stroke-linejoin="round" stroke-linecap="butt" d="m52.56693 13.874016l5.6063004 5.6062984" fill-rule="evenodd"/><path fill="#000000" fill-opacity="0.0" d="m8.818897 24.0l0 0c0 -8.166857 6.796811 -14.787401 15.181103 -14.787401l0 0c4.0262794 0 7.8876514 1.5579538 10.734661 4.331129c2.8470078 2.7731762 4.4464417 6.5344086 4.4464417 10.456272l0 0c0 8.166855 -6.79681 14.787403 -15.181103 14.787403l0 0c-8.384292 0 -15.181103 -6.6205482 -15.181103 -14.787403z" fill-rule="evenodd"/><path stroke="#4a86e8" stroke-width="1.0" stroke-linejoin="round" stroke-linecap="butt" d="m8.818897 24.0l0 0c0 -8.166857 6.796811 -14.787401 15.181103 -14.787401l0 0c4.0262794 0 7.8876514 1.5579538 10.734661 4.331129c2.8470078 2.7731762 4.4464417 6.5344086 4.4464417 10.456272l0 0c0 8.166855 -6.79681 14.787403 -15.181103 14.787403l0 0c-8.384292 0 -15.181103 -6.6205482 -15.181103 -14.787403z" fill-rule="evenodd"/></g></svg>