<svg version="1.1" viewBox="0.0 0.0 48.0 48.0" fill="none" stroke="none" stroke-linecap="square" stroke-miterlimit="10" xmlns:xlink="http://www.w3.org/1999/xlink" xmlns="http://www.w3.org/2000/svg"><clipPath id="p.0"><path d="m0 0l48.0 0l0 48.0l-48.0 0l0 -48.0z" clip-rule="nonzero"/></clipPath><g clip-path="url(#p.0)"><path fill="#000000" fill-opacity="0.0" d="m0 0l48.0 0l0 48.0l-48.0 0z" fill-rule="evenodd"/><path fill="#000000" fill-opacity="0.0" d="m0.5853018 8.343988l0 0c0 -4.3168945 3.4995346 -7.816429 7.8164296 -7.816429l31.359266 0l0 0c2.0730476 0 4.0611877 0.82351434 5.52705 2.2893791c1.4658661 1.4658649 2.2893791 3.454004 2.2893791 5.52705l0 31.26478c0 4.3168945 -3.4995346 7.816429 -7.816429 7.816429l-31.359266 0c-4.316895 0 -7.8164296 -3.4995346 -7.8164296 -7.816429z" fill-rule="evenodd"/><path stroke="#4a86e8" stroke-width="1.0" stroke-linejoin="round" stroke-linecap="butt" d="m0.5853018 8.343988l0 0c0 -4.3168945 3.4995346 -7.816429 7.8164296 -7.816429l31.359266 0l0 0c2.0730476 0 4.0611877 0.82351434 5.52705 2.2893791c1.4658661 1.4658649 2.2893791 3.454004 2.2893791 5.52705l0 31.26478c0 4.3168945 -3.4995346 7.816429 -7.816429 7.816429l-31.359266 0c-4.316895 0 -7.8164296 -3.4995346 -7.8164296 -7.816429z" fill-rule="evenodd"/><path fill="#000000" fill-opacity="0.0" d="m-7.96063 4.9160104l5.6062994 5.606299" fill-rule="evenodd"/><path stroke="#000000" stroke-width="1.0" stroke-linejoin="round" stroke-linecap="butt" d="m-7.96063 4.9160104l5.6062994 5.606299" fill-rule="evenodd"/><path fill="#000000" fill-opacity="0.0" d="m52.56693 13.874016l5.6063004 5.6062984" fill-rule="evenodd"/><path stroke="#000000" stroke-width="1.0" stroke-linejoin="round" stroke-linecap="butt" d="m52.56693 13.874016l5.6063004 5.6062984" fill-rule="evenodd"/><path fill="#000000" d="m8.947507 16.094566l0 0c0 -2.1830893 1.7697439 -3.9528341 3.952835 -3.9528341l22.362045 0c1.0483589 0 2.0537796 0.41645813 2.7950783 1.1577587c0.7412987 0.7413006 1.1577568 1.7467194 1.1577568 2.7950754l0 15.810867c0 2.1830902 -1.769741 3.952835 -3.952835 3.952835l-22.362045 0l0 0c-2.1830912 0 -3.952835 -1.7697449 -3.952835 -3.952835z" fill-rule="evenodd"/><path stroke="#4a86e8" stroke-width="1.0" stroke-linejoin="round" stroke-linecap="butt" d="m8.947507 16.094566l0 0c0 -2.1830893 1.7697439 -3.9528341 3.952835 -3.9528341l22.362045 0c1.0483589 0 2.0537796 0.41645813 2.7950783 1.1577587c0.7412987 0.7413006 1.1577568 1.7467194 1.1577568 2.7950754l0 15.810867c0 2.1830902 -1.769741 3.952835 -3.952835 3.952835l-22.362045 0l0 0c-2.1830912 0 -3.952835 -1.7697449 -3.952835 -3.952835z" fill-rule="evenodd"/><path fill="#00ff00" d="m28.964628 25.076248l-8.84375 3.78125l0 -1.625l7.015625 -2.90625l-7.015625 -2.875l0 -1.640625l8.84375 3.734375l0 1.53125z" fill-rule="nonzero"/></g></svg>